<?xml version="1.0" encoding="UTF-8"?>
<svg xmlns="http://www.w3.org/2000/svg" xmlns:xlink="http://www.w3.org/1999/xlink" version="1.1" viewBox="0 0 691 691">
  <!-- Generator: Adobe Illustrator 29.5.1, SVG Export Plug-In . SVG Version: 2.1.0 Build 141)  -->
  <defs>
    <style>
      .st0 {
        fill: none;
      }

      .st1 {
        fill: #6495ed;
      }

      .st2 {
        isolation: isolate;
      }

      .st3 {
        fill: #fff;
      }

      .st4 {
        display: none;
        fill: #585857;
        mix-blend-mode: multiply;
        opacity: .18;
      }

      .st5 {
        fill: #f7ffff;
      }

      .st6 {
        clip-path: url(#clippath);
      }
    </style>
    <clipPath id="clippath">
      <rect class="st0" width="691" height="691"/>
    </clipPath>
  </defs>
  <g class="st2">
    <g id="Capa_1">
      <g class="st6">
        <g>
          <g>
            <path class="st1" d="M511.31,126.68c0-15.16-12.29-27.45-27.45-27.45H143.48c-15.16,0-27.45,12.29-27.45,27.45v179.34h395.28V126.68Z"/>
            <path class="st3" d="M317.35,107.45c0-2.03-1.65-3.67-3.67-3.67s-3.67,1.64-3.67,3.67,1.64,3.68,3.67,3.68,3.67-1.64,3.67-3.68Z"/>
            <path class="st1" d="M116.03,306.02v27.45c0,15.16,12.29,27.45,27.45,27.45h117.51v60.43h-35.16v23.33h175.67v-23.33h-35.16v-60.43h117.51c15.16,0,27.45-12.29,27.45-27.45v-27.45H116.03Z"/>
            <path class="st3" d="M321.02,333.47c0-4.06-3.29-7.35-7.35-7.35s-7.35,3.29-7.35,7.35,3.29,7.35,7.35,7.35,7.35-3.29,7.35-7.35Z"/>
            <polygon class="st3" points="321.39 114.8 285.33 114.8 254.06 114.8 220.03 114.8 134.75 114.8 134.75 177.31 134.75 202.26 134.75 225.18 134.75 250.28 134.75 292.49 492.6 292.49 492.6 114.8 321.39 114.8"/>
          </g>
          <g>
            <rect class="st1" x="109.75" y="491.2" width="376.01" height="100.58"/>
            <polygon class="st4" points="485.76 491.2 485.76 591.77 109.75 591.77 485.76 491.2"/>
            <g>
              <g>
                <rect class="st5" x="275.74" y="503.84" width="14.48" height="14.48"/>
                <rect class="st5" x="300.65" y="503.84" width="14.48" height="14.48"/>
                <rect class="st5" x="452.36" y="503.84" width="14.48" height="14.48"/>
              </g>
              <g>
                <rect class="st5" x="275.74" y="524.11" width="14.48" height="14.48"/>
                <rect class="st5" x="300.65" y="524.11" width="14.48" height="14.48"/>
                <rect class="st5" x="452.36" y="524.11" width="14.48" height="14.48"/>
              </g>
              <g>
                <rect class="st5" x="275.74" y="544.38" width="14.48" height="14.48"/>
                <rect class="st5" x="300.65" y="544.38" width="14.48" height="14.48"/>
                <rect class="st5" x="452.36" y="544.38" width="14.48" height="14.48"/>
              </g>
              <g>
                <rect class="st5" x="402.55" y="564.65" width="14.48" height="14.48"/>
                <rect class="st5" x="427.45" y="564.65" width="14.48" height="14.48"/>
                <rect class="st5" x="275.74" y="503.84" width="14.48" height="14.48"/>
                <rect class="st5" x="300.65" y="503.84" width="14.48" height="14.48"/>
                <rect class="st5" x="275.74" y="524.11" width="14.48" height="14.48"/>
                <rect class="st5" x="300.65" y="524.11" width="14.48" height="14.48"/>
                <rect class="st5" x="275.74" y="544.38" width="14.48" height="14.48"/>
                <rect class="st5" x="300.65" y="544.38" width="14.48" height="14.48"/>
                <rect class="st5" x="275.74" y="564.65" width="14.48" height="14.48"/>
                <rect class="st5" x="300.65" y="564.65" width="14.48" height="14.48"/>
                <rect class="st5" x="452.36" y="564.65" width="14.48" height="14.48"/>
              </g>
            </g>
            <g>
              <g>
                <rect class="st5" x="326.67" y="503.84" width="14.48" height="14.48"/>
                <rect class="st5" x="351.57" y="503.84" width="14.48" height="14.48"/>
                <rect class="st5" x="376.48" y="503.84" width="14.48" height="14.48"/>
              </g>
              <g>
                <rect class="st5" x="326.67" y="524.11" width="14.48" height="14.48"/>
                <rect class="st5" x="351.57" y="524.11" width="14.48" height="14.48"/>
                <rect class="st5" x="376.48" y="524.11" width="14.48" height="14.48"/>
              </g>
              <rect class="st5" x="351.57" y="544.38" width="14.48" height="14.48"/>
              <g>
                <rect class="st5" x="326.67" y="564.65" width="14.48" height="14.48"/>
                <rect class="st5" x="351.57" y="564.65" width="14.48" height="14.48"/>
                <rect class="st5" x="376.48" y="564.65" width="14.48" height="14.48"/>
              </g>
            </g>
            <rect class="st5" x="124.81" y="503.84" width="14.48" height="14.48"/>
            <rect class="st5" x="149.71" y="503.84" width="14.48" height="14.48"/>
            <rect class="st5" x="124.81" y="524.11" width="14.48" height="14.48"/>
            <rect class="st5" x="149.71" y="524.11" width="14.48" height="14.48"/>
            <rect class="st5" x="124.81" y="544.38" width="14.48" height="14.48"/>
            <rect class="st5" x="149.71" y="544.38" width="14.48" height="14.48"/>
            <rect class="st5" x="174.04" y="503.84" width="14.48" height="14.48"/>
            <rect class="st5" x="198.95" y="503.84" width="14.48" height="14.48"/>
            <rect class="st5" x="174.04" y="524.11" width="14.48" height="14.48"/>
            <rect class="st5" x="198.95" y="524.11" width="14.48" height="14.48"/>
            <rect class="st5" x="174.04" y="544.38" width="14.48" height="14.48"/>
            <rect class="st5" x="198.95" y="544.38" width="14.48" height="14.48"/>
            <rect class="st5" x="124.81" y="564.65" width="14.48" height="14.48"/>
            <rect class="st5" x="149.71" y="564.65" width="14.48" height="14.48"/>
            <rect class="st5" x="174.04" y="564.65" width="90.94" height="14.48"/>
            <rect class="st5" x="225.59" y="503.84" width="14.48" height="14.48"/>
            <rect class="st5" x="250.5" y="503.84" width="14.48" height="14.48"/>
            <rect class="st5" x="225.59" y="524.11" width="14.48" height="14.48"/>
            <rect class="st5" x="250.5" y="524.11" width="14.48" height="14.48"/>
            <rect class="st5" x="225.59" y="544.38" width="14.48" height="14.48"/>
            <rect class="st5" x="250.5" y="544.38" width="14.48" height="14.48"/>
            <rect class="st5" x="402.55" y="503.84" width="14.48" height="14.48"/>
            <rect class="st5" x="427.45" y="503.84" width="14.48" height="14.48"/>
            <rect class="st5" x="402.55" y="524.11" width="14.48" height="14.48"/>
            <rect class="st5" x="427.45" y="524.11" width="14.48" height="14.48"/>
            <rect class="st5" x="402.55" y="544.38" width="14.48" height="14.48"/>
            <rect class="st5" x="427.45" y="544.38" width="14.48" height="14.48"/>
          </g>
          <g>
            <path class="st1" d="M581.17,405.31c-1.08-15.6-14.08-27.93-29.95-27.93s-28.87,12.32-29.95,27.93c-.05.7-.08,1.4-.08,2.11v38.62c0,16.59,13.45,30.04,30.04,30.04s30.04-13.45,30.04-30.04v-38.62c0-.71-.03-1.41-.08-2.11Z"/>
            <path class="st4" d="M521.18,446.04c0,16.59,13.45,30.04,30.04,30.04s30.04-13.45,30.04-30.04v-38.62c0-.71-.03-1.41-.08-2.11l-59.99,40.73Z"/>
            <path class="st3" d="M555.03,395.3c0-2.11-1.71-3.81-3.81-3.81s-3.81,1.71-3.81,3.81,1.71,3.81,3.81,3.81,3.81-1.71,3.81-3.81Z"/>
          </g>
        </g>
      </g>
    </g>
  </g>
</svg>